<svg xmlns="http://www.w3.org/2000/svg" xmlns:xlink="http://www.w3.org/1999/xlink" viewBox="0 0 260 275"><defs><style>.cls-1{fill:none;}.cls-2{isolation:isolate;}.cls-17,.cls-3{opacity:0.4;mix-blend-mode:multiply;}.cls-3{fill:url(#linear-gradient);}.cls-4{fill:#373c48;}.cls-5{fill:#596177;}.cls-6{fill:#ccc;}.cls-7{fill:#ebebeb;}.cls-8{fill:#f74141;}.cls-9{fill:#a0a0a0;}.cls-10{fill:#21d88d;}.cls-11{fill:#279358;}.cls-12{fill:#21f4a7;}.cls-13{fill:#292c36;}.cls-14{fill:#1e1616;}.cls-15{fill:url(#linear-gradient-2);}.cls-16{fill:#ffe000;}.cls-17{fill:url(#linear-gradient-3);}.cls-18{fill:#fc7d27;}.cls-19{fill:#2267b9;}.cls-20{fill:#e08141;}.cls-21{fill:#aa3713;}.cls-22{fill:#e5581a;}.cls-23{fill:#dd620e;}.cls-24{fill:#c15a3e;}.cls-25{fill:#ffa05f;}.cls-26{clip-path:url(#clip-path);}.cls-27{fill:#dda95d;}.cls-28{fill:#c88b5c;}.cls-29{fill:#a6521a;}.cls-30{fill:#e5be83;}</style><linearGradient id="linear-gradient" x1="46.65" y1="143.18" x2="107.29" y2="248.2" gradientUnits="userSpaceOnUse"><stop offset="0" stop-color="#fff"/><stop offset="0.13" stop-color="#fbfbfb"/><stop offset="0.26" stop-color="#f0f0f0"/><stop offset="0.38" stop-color="#dcdcdc"/><stop offset="0.51" stop-color="#c1c1c1"/><stop offset="0.63" stop-color="#9e9e9e"/><stop offset="0.75" stop-color="#737373"/><stop offset="0.87" stop-color="#404040"/><stop offset="0.99" stop-color="#060606"/><stop offset="1"/></linearGradient><linearGradient id="linear-gradient-2" x1="131.47" y1="115.36" x2="160.23" y2="115.36" gradientUnits="userSpaceOnUse"><stop offset="0" stop-color="#a0a0a0"/><stop offset="0.08" stop-color="#a4a4a4"/><stop offset="0.15" stop-color="#afafaf"/><stop offset="0.22" stop-color="#c3c3c3"/><stop offset="0.25" stop-color="#ccc"/><stop offset="0.3" stop-color="#c3c3c3"/><stop offset="0.48" stop-color="#a9a9a9"/><stop offset="0.58" stop-color="#a0a0a0"/><stop offset="0.69" stop-color="#9c9c9c"/><stop offset="0.8" stop-color="#919191"/><stop offset="0.91" stop-color="#7d7d7d"/><stop offset="1" stop-color="#676767"/></linearGradient><linearGradient id="linear-gradient-3" x1="106.22" y1="74.86" x2="155.4" y2="160.04" xlink:href="#linear-gradient"/><clipPath id="clip-path"><polygon class="cls-1" points="204.33 99.97 152.22 130.05 79.64 87.87 95.67 55.31 142.59 30.48 195.46 64.49 204.33 99.97"/></clipPath></defs><title>sc</title><g class="cls-2"><g id="图层_1" data-name="图层 1"><polygon class="cls-3" points="145.73 226.01 115.41 226.01 9.1 166.93 64.54 132.85 145.73 226.01"/><path class="cls-4" d="M53,145.71c-1.74-1-4.14-.85-6.74.65-.33.2-.68.42-1,.66-5.2,3.65-8.94,11.2-8.36,16.85.25,2.4,1.24,4.08,2.7,4.93L47,173.09l0,0a4.13,4.13,0,0,1-.87-.69l-.14-.13a5.69,5.69,0,0,1-.7-.95l-.09-.18a6.88,6.88,0,0,1-.51-1.23.83.83,0,0,0,0-.15,9,9,0,0,1-.3-1.56c-.58-5.65,3.16-13.19,8.36-16.85.35-.24.69-.46,1-.65a9.17,9.17,0,0,1,.93-.48l.3-.13.61-.24.35-.11.52-.15.36-.07.49-.07.36,0,.45,0,.35,0a2.84,2.84,0,0,1,.42,0l.33.06c.13,0,.27.07.4.12a1.82,1.82,0,0,1,.3.11l.38.17.19.09Z"/><path class="cls-5" d="M63.1,154.93c-.26-2.5-1.33-4.2-2.89-5l-.38-.17a1.82,1.82,0,0,0-.3-.11c-.13,0-.27-.08-.4-.12l-.33-.06a2.84,2.84,0,0,0-.42,0l-.35,0-.45,0-.36,0-.49.07-.36.07-.52.15-.35.11-.61.24-.3.13a9.17,9.17,0,0,0-.93.48c-.34.19-.68.41-1,.65-5.2,3.66-8.94,11.2-8.36,16.85a9,9,0,0,0,.3,1.56.83.83,0,0,1,0,.15,6.88,6.88,0,0,0,.51,1.23l.09.18a5.69,5.69,0,0,0,.7.95l.14.13a4.13,4.13,0,0,0,.87.69c1.74,1,4.15.91,6.78-.61a11.06,11.06,0,0,0,1-.66C59.93,168.13,63.68,160.59,63.1,154.93Z"/><path class="cls-6" d="M60.11,157.36a3.77,3.77,0,0,0-1.83-3.18l-.24-.11-.19-.07-.25-.07-.21-.05-.27,0h-.51l-.22,0-.31,0-.23,0-.33.1a1.41,1.41,0,0,0-.22.06l-.39.15-.19.08-.59.31c-.21.13-.43.26-.65.42-3.29,2.31-5.66,7.09-5.29,10.67a4.86,4.86,0,0,0,.19,1,.36.36,0,0,0,0,.1,5.07,5.07,0,0,0,.32.78l.06.11a3.44,3.44,0,0,0,.44.6l.09.09a3.32,3.32,0,0,0,.55.44c1.1.66,2.64.57,4.29-.39.22-.13.44-.26.66-.42C58.1,165.72,60.48,160.94,60.11,157.36Z"/><polygon class="cls-7" points="209.96 107.75 145.2 70.36 48.22 126.72 112.99 164.11 209.96 107.75"/><polygon class="cls-5" points="145.85 183.08 145.73 226.01 242.71 169.65 242.83 126.72 145.85 183.08"/><polygon class="cls-4" points="112.99 164.11 48.22 126.72 48.1 169.64 112.87 207.03 145.73 226.01 145.85 183.08 112.99 164.11"/><polygon class="cls-8" points="145.85 183.08 242.83 126.72 209.96 107.75 112.99 164.11 145.85 183.08"/><polygon class="cls-9" points="43.05 118.69 42.92 163.9 111.14 203.28 111.26 158.07 43.05 118.69"/><polygon class="cls-7" points="213.39 98.72 145.19 59.34 43.05 118.69 111.26 158.07 213.39 98.72"/><polygon class="cls-10" points="145.87 178.06 145.74 223.26 247.87 163.91 248 118.7 145.87 178.06"/><polygon class="cls-11" points="145.87 178.06 111.26 158.07 111.14 203.28 145.74 223.26 145.87 178.06"/><polygon class="cls-12" points="145.87 178.06 248 118.7 213.39 98.72 111.26 158.07 145.87 178.06"/><path class="cls-4" d="M125.59,83.39c0-.78,0-1.46,0-2.24,0-.39,0-.81,0-1.27v2.38c0,1.86,0,2.92,0,4.79V83.39Z"/><polygon class="cls-13" points="159.66 90.44 165.49 87.05 165.5 84.67 157.61 89.25 159.66 90.44"/><polygon class="cls-14" points="125.59 84.67 125.59 87.05 131.48 90.45 133.53 89.25 125.59 84.67"/><path class="cls-4" d="M75.19,109.15v2.37c0,6.55.06,10.2.1,16.75v-2.38C75.25,119.35,75.23,115.69,75.19,109.15Z"/><polygon class="cls-14" points="210.78 129.08 210.77 131.46 216.27 128.27 216.27 125.89 210.78 129.08"/><path class="cls-14" d="M204.71,129.07h-2.2v2.38h8.27v-2.38Z"/><polygon class="cls-14" points="194.57 124.49 194.56 126.87 202.5 131.45 202.51 129.07 194.57 124.49"/><polygon class="cls-14" points="89.08 129.07 89.08 131.46 96.97 126.87 96.97 124.49 89.08 129.07"/><polygon class="cls-14" points="75.28 125.89 75.28 128.27 80.79 131.46 80.8 129.07 75.28 125.89"/><path class="cls-14" d="M80.8,129.07v2.39h8.29v-2.39Z"/><polygon class="cls-13" points="157.93 145.78 159.98 146.97 194.56 126.87 194.57 124.49 157.93 145.78"/><polygon class="cls-14" points="96.97 124.49 96.97 126.87 131.79 146.98 133.85 145.78 96.97 124.49"/><path class="cls-4" d="M126,154.17v-1.52c0-.28,0-.55,0-.84v.94c0,1.52,0,2.51,0,3.83v-1.42C126,154.79,126,154.48,126,154.17Z"/><polygon class="cls-14" points="160.41 160.73 165.89 157.54 165.89 155.16 160.41 158.35 160.41 160.73"/><path class="cls-14" d="M131.5,160.73h28.91v-2.38h-28.9Z"/><path class="cls-4" d="M194.57,124.49l7.94,4.58h8.27l5.49-3.19c-.05-6.53-.05-10.2-.09-16.74l-5.54-3.2h-8.26l-7.89,4.59L159.66,90.43l-2-1.18,7.89-4.58c0-1.87,0-2.93,0-4.8L160,76.69c-11.29,0-17.62,0-28.9,0l-5.5,3.19c0,.46,0,.88,0,1.27,0,.78,0,1.46,0,2.24v1.28l7.94,4.58-2.05,1.2L96.9,110.55,89,106H80.67l-5.48,3.19c0,6.54.06,10.2.09,16.74l5.52,3.18h8.28L97,124.49l36.88,21.29-2.06,1.2L126,150.37v1.44c0,.29,0,.56,0,.84v1.52c0,.31,0,.62,0,1l5.54,3.19h28.9l5.48-3.19c0-1.87,0-2.92,0-4.79L160,147l-2-1.19Z"/><polygon class="cls-14" points="125.97 155.16 125.97 156.58 125.97 157.53 131.5 160.73 131.51 158.35 125.97 155.16"/><path class="cls-6" d="M117.22,118.06c0,.24,0,.49.06.73s.14.57.21.85.11.5.19.74.23.56.35.84.19.49.31.73.34.56.51.84.26.46.42.68.45.57.68.85.32.43.51.63.58.58.88.86.37.39.58.57.78.62,1.19.93c.18.14.34.29.53.42.62.44,1.28.86,2,1.27,11.26,6.5,29.46,6.51,40.65,0,.7-.4,1.35-.83,2-1.26.19-.14.35-.29.53-.43.4-.3.81-.6,1.17-.92s.38-.38.58-.57.59-.55.85-.84.35-.44.53-.66.45-.53.64-.81.28-.46.42-.69.35-.55.5-.83.2-.47.3-.71.25-.56.35-.85.12-.49.18-.73.16-.56.21-.85,0-.5.06-.75c.39-4.56-2.4-9.19-8.41-12.66-11.27-6.5-29.47-6.49-40.66,0-5.57,3.23-8.35,7.48-8.35,11.72A8.52,8.52,0,0,0,117.22,118.06Z"/><path class="cls-15" d="M156.11,120.55a12,12,0,0,1,1.78,1.28h0l.29-.3c.14-.13.3-.27.43-.41s.17-.23.26-.33.23-.27.32-.41.14-.23.21-.35.18-.27.25-.41.1-.24.15-.36a3.69,3.69,0,0,0,.17-.42,2.54,2.54,0,0,0,.1-.37c0-.14.08-.28.1-.42s0-.25,0-.38c.2-2.28-1.2-4.6-4.21-6.34-5.64-3.25-14.75-3.24-20.35,0-2.79,1.62-4.18,3.75-4.18,5.87a3.42,3.42,0,0,0,0,.44c0,.12,0,.24,0,.36s.07.28.11.43.06.25.09.36.12.29.18.43.1.24.16.36.17.28.25.42a3.37,3.37,0,0,0,.22.35,4.18,4.18,0,0,0,.34.42,3.92,3.92,0,0,0,.25.32c.13.14.29.29.44.43a3.31,3.31,0,0,0,.27.26,11.89,11.89,0,0,1,1.74-1.23C141.23,117.27,150.42,117.27,156.11,120.55Z"/><path class="cls-6" d="M134.45,122.28l.27.21q.47.33,1,.63c5.64,3.26,14.75,3.26,20.35,0,.35-.21.68-.41,1-.63l.27-.22.57-.45a12,12,0,0,0-1.78-1.28c-5.69-3.28-14.88-3.28-20.53,0a11.89,11.89,0,0,0-1.74,1.23l0,0C134,122,134.25,122.12,134.45,122.28Z"/><path class="cls-16" d="M134.45,122.28l.27.21q.47.33,1,.63c5.64,3.26,14.75,3.26,20.35,0,.35-.21.68-.41,1-.63l.27-.22.57-.45a12,12,0,0,0-1.78-1.28c-5.69-3.28-14.88-3.28-20.53,0a11.89,11.89,0,0,0-1.74,1.23l0,0C134,122,134.25,122.12,134.45,122.28Z"/><path class="cls-7" d="M48.31,141.28,48.22,152a3.23,3.23,0,0,0,1.6,2.8l86.6,50.4a1.74,1.74,0,0,0,2.61-1.5l.09-10.66a3.21,3.21,0,0,0-1.6-2.81L50.93,139.79A1.74,1.74,0,0,0,48.31,141.28Z"/><path class="cls-13" d="M52,149.18a1.4,1.4,0,0,1,.68-1.18l.09,0,.07,0,.1,0,.07,0h.37l.12,0h.08l.12,0,.09,0,.14.06.07,0,.22.11.24.16a4.82,4.82,0,0,1,2,3.95,2.2,2.2,0,0,1-.07.37s0,0,0,0a1.26,1.26,0,0,1-.12.29l0,0a1.25,1.25,0,0,1-.16.22l0,0a1.29,1.29,0,0,1-1.79,0,1.65,1.65,0,0,1-.25-.15A4.83,4.83,0,0,1,52,149.18Z"/><path class="cls-13" d="M59.77,153.62a1.43,1.43,0,0,1,.68-1.18l.09,0,.07,0,.09,0,.08,0h.48l.09,0,.12,0,.09,0,.14.06.07,0,.22.12.24.15a4.82,4.82,0,0,1,2,4,1.91,1.91,0,0,1-.07.36s0,0,0,0a1.48,1.48,0,0,1-.12.29.05.05,0,0,0,0,0,1.18,1.18,0,0,1-.17.22l0,0a1,1,0,0,1-.2.16,1.55,1.55,0,0,1-1.59-.14l-.25-.16A4.79,4.79,0,0,1,59.77,153.62Z"/><path class="cls-13" d="M67.53,158.07a1.42,1.42,0,0,1,.68-1.18l.09,0,.07,0,.1,0h.44l.12,0h.08l.12,0,.09,0,.14.06.07,0,.22.11.24.16a4.79,4.79,0,0,1,2,3.95,1.91,1.91,0,0,1-.07.36s0,0,0,0a1.26,1.26,0,0,1-.12.29s0,0,0,0a1.25,1.25,0,0,1-.16.22l0,0-.21.16a1.56,1.56,0,0,1-1.59-.15l-.25-.15A4.85,4.85,0,0,1,67.53,158.07Z"/><path class="cls-13" d="M75.29,162.51a1.42,1.42,0,0,1,.68-1.17l.09-.05.07,0,.1,0,.07,0h.49l.08,0,.13,0,.08,0,.14.06s0,0,.07,0l.22.11.24.15a4.82,4.82,0,0,1,2,4,1.87,1.87,0,0,1-.07.37.06.06,0,0,1,0,0,1.18,1.18,0,0,1-.12.28l0,0a1.77,1.77,0,0,1-.16.22l0,0a.62.62,0,0,1-.2.16,1.53,1.53,0,0,1-1.59-.14l-.24-.15A4.86,4.86,0,0,1,75.29,162.51Z"/><path class="cls-13" d="M83.05,167a1.42,1.42,0,0,1,.68-1.18l.09,0,.07,0,.1,0,.07,0h.37l.12,0,.08,0,.13,0,.08,0,.14.06.07,0,.22.11.24.16a4.82,4.82,0,0,1,2,3.95,1.51,1.51,0,0,1-.07.37.08.08,0,0,1,0,0,1.39,1.39,0,0,1-.12.28.05.05,0,0,1,0,0,.89.89,0,0,1-.16.22l0,0a1.66,1.66,0,0,1-.21.16,1.54,1.54,0,0,1-1.59-.15,1.58,1.58,0,0,1-.24-.15A4.82,4.82,0,0,1,83.05,167Z"/><path class="cls-13" d="M90.82,171.41a1.41,1.41,0,0,1,.68-1.19l.08,0,.07,0,.1,0h.07l.11,0h.38l.09,0,.12,0,.08,0a.59.59,0,0,1,.14.06l.07,0a.91.91,0,0,1,.22.11c.08,0,.16.1.24.15a4.86,4.86,0,0,1,2,4,3.21,3.21,0,0,1-.08.36s0,0,0,0a1.45,1.45,0,0,1-.11.29l0,0a1.25,1.25,0,0,1-.16.22l0,0a1.06,1.06,0,0,1-.21.16,1.56,1.56,0,0,1-1.59-.14l-.24-.16A4.79,4.79,0,0,1,90.82,171.41Z"/><path class="cls-13" d="M98.58,175.85a1.4,1.4,0,0,1,.68-1.18l.09,0,.06,0,.1,0,.07,0H100l.12,0h.08l.13,0,.08,0,.14.06.07,0,.22.11.24.16a4.84,4.84,0,0,1,2,3.95,2.21,2.21,0,0,1-.08.37v0c0,.11-.08.2-.12.29a.08.08,0,0,0,0,0,1.4,1.4,0,0,1-.17.22l0,0a.83.83,0,0,1-.21.16,1.58,1.58,0,0,1-1.59-.14l-.24-.16A4.79,4.79,0,0,1,98.58,175.85Z"/><path class="cls-13" d="M106.34,180.29a1.39,1.39,0,0,1,.68-1.17l.08-.05.08,0,.09,0h.56l.09,0,.12,0,.08,0,.14,0,.08,0,.21.11.25.15a4.88,4.88,0,0,1,2,4,3.29,3.29,0,0,1-.07.36v0l-.12.29,0,0a1.28,1.28,0,0,1-.17.22l0,0a.65.65,0,0,1-.21.16,1.53,1.53,0,0,1-1.59-.14l-.24-.15A4.82,4.82,0,0,1,106.34,180.29Z"/><path class="cls-13" d="M114.1,184.74a1.4,1.4,0,0,1,.68-1.18l.09,0,.07,0,.09,0,.08,0h.37l.11,0,.09,0,.12,0,.09,0,.13.05.07,0a1.55,1.55,0,0,1,.22.12,1.2,1.2,0,0,1,.24.15,4.79,4.79,0,0,1,2,4c0,.13,0,.25-.07.37s0,0,0,0a1.81,1.81,0,0,1-.12.28l0,0a1.37,1.37,0,0,1-.17.23l0,0a1,1,0,0,1-.2.16,1.6,1.6,0,0,1-1.6-.14l-.24-.16A4.81,4.81,0,0,1,114.1,184.74Z"/><path class="cls-13" d="M121.86,189.19a1.43,1.43,0,0,1,.68-1.19l.09,0,.07,0,.09,0h.08l.1,0h.27l.11,0h.09l.12,0,.08,0,.15.06.07,0,.21.11.24.15a4.83,4.83,0,0,1,2,4,1.91,1.91,0,0,1-.07.36v0a2,2,0,0,1-.12.29l0,0a.92.92,0,0,1-.17.22l0,0a.87.87,0,0,1-.21.17,1.56,1.56,0,0,1-1.59-.15l-.24-.15A4.82,4.82,0,0,1,121.86,189.19Z"/><path class="cls-13" d="M129.62,193.63a1.4,1.4,0,0,1,.68-1.18l.09,0,.07,0,.09,0,.08,0H131l.11,0,.09,0,.12,0,.08,0,.15,0,.07,0,.22.11.24.16a4.82,4.82,0,0,1,2,4,3.29,3.29,0,0,1-.07.36,0,0,0,0,0,0,0,1.1,1.1,0,0,1-.12.29.08.08,0,0,0,0,0,1.37,1.37,0,0,1-.17.23l0,0a1.3,1.3,0,0,1-1.8,0l-.24-.16A4.79,4.79,0,0,1,129.62,193.63Z"/><path class="cls-4" d="M172.1,198.77c-2-1.16-4.74-1-7.72.74-.39.23-.78.48-1.18.76-5.95,4.18-10.24,12.82-9.57,19.29.28,2.76,1.42,4.68,3.09,5.65l8.46,4.92-.06,0a5.29,5.29,0,0,1-1-.78l-.15-.16a5.57,5.57,0,0,1-.8-1.09c0-.06-.07-.13-.11-.2a7.18,7.18,0,0,1-.58-1.41c0-.05,0-.12,0-.17a9.79,9.79,0,0,1-.34-1.79c-.67-6.47,3.62-15.11,9.57-19.29.4-.28.8-.53,1.19-.76s.71-.39,1.06-.55c.12-.06.23-.09.35-.14s.46-.2.69-.28.26-.08.4-.12l.6-.17a3.28,3.28,0,0,1,.41-.08l.56-.09.41,0,.52,0,.39,0a4,4,0,0,1,.5.06l.37.07.46.13.34.13.43.2.22.1Z"/><path class="cls-5" d="M183.66,209.33c-.3-2.87-1.53-4.82-3.32-5.75l-.43-.2-.34-.13-.46-.13-.37-.07a4,4,0,0,0-.5-.06l-.39,0-.52,0-.41,0-.56.09a3.28,3.28,0,0,0-.41.08l-.6.17-.4.12c-.23.08-.46.18-.69.28s-.23.08-.35.14c-.35.16-.7.34-1.06.55s-.79.48-1.19.76c-5.95,4.18-10.24,12.82-9.57,19.29a9.79,9.79,0,0,0,.34,1.79s0,.12,0,.17a7.18,7.18,0,0,0,.58,1.41c0,.07.07.14.11.2a5.57,5.57,0,0,0,.8,1.09l.15.16a5.29,5.29,0,0,0,1,.78c2,1.2,4.76,1,7.76-.69.4-.23.79-.48,1.19-.76C180,224.45,184.32,215.81,183.66,209.33Z"/><path class="cls-6" d="M180.23,212.11a4.3,4.3,0,0,0-2.1-3.64l-.27-.13-.22-.08-.29-.08-.23-.05-.32,0h-.24c-.11,0-.22,0-.33,0l-.26,0-.36.06a1.32,1.32,0,0,0-.26.05,3.06,3.06,0,0,0-.38.1l-.25.08-.44.17-.22.1a5.38,5.38,0,0,0-.67.35,7.85,7.85,0,0,0-.75.48c-3.78,2.64-6.49,8.12-6.07,12.22a6.46,6.46,0,0,0,.22,1.13l0,.11a4.75,4.75,0,0,0,.37.89.83.83,0,0,0,.07.13,4.34,4.34,0,0,0,.5.69l.1.1a3.74,3.74,0,0,0,.63.5c1.26.75,3,.65,4.92-.45a7.85,7.85,0,0,0,.75-.48C177.93,221.69,180.65,216.21,180.23,212.11Z"/><path class="cls-4" d="M237.06,161.59c-1.81-1.05-4.31-.88-7,.68A12,12,0,0,0,229,163c-5.42,3.8-9.31,11.65-8.71,17.53.26,2.51,1.29,4.25,2.82,5.14l7.69,4.47-.06,0a5.18,5.18,0,0,1-.91-.71l-.14-.15a5.51,5.51,0,0,1-.72-1,1.74,1.74,0,0,1-.1-.19,6.73,6.73,0,0,1-.53-1.28.94.94,0,0,1,0-.16A8.77,8.77,0,0,1,228,185c-.6-5.88,3.29-13.73,8.71-17.54.36-.25.72-.48,1.07-.68a10,10,0,0,1,1-.5l.31-.13c.21-.09.42-.18.63-.25s.24-.08.36-.12l.55-.15.38-.07.51-.08.37,0,.47,0,.36,0,.44,0,.34.07.42.12.31.11c.14.05.27.12.4.18l.19.1Z"/><path class="cls-5" d="M247.57,171.19c-.27-2.61-1.39-4.38-3-5.23-.13-.06-.26-.13-.4-.18l-.31-.11-.42-.12-.34-.07-.44,0-.36,0-.47,0-.37,0-.51.08-.38.07-.55.15c-.12,0-.24.07-.36.12s-.42.16-.63.25l-.31.13a10,10,0,0,0-1,.5c-.35.2-.71.43-1.07.68-5.42,3.81-9.31,11.66-8.71,17.54a8.77,8.77,0,0,0,.32,1.62.94.94,0,0,0,0,.16,6.73,6.73,0,0,0,.53,1.28,1.74,1.74,0,0,0,.1.19,5.51,5.51,0,0,0,.72,1l.14.15a5.18,5.18,0,0,0,.91.71c1.81,1.09,4.33.94,7.06-.63a12,12,0,0,0,1.07-.69C244.27,184.93,248.17,177.08,247.57,171.19Z"/><path class="cls-6" d="M244.45,173.72a3.91,3.91,0,0,0-1.9-3.31l-.25-.12-.2-.07-.26-.08-.22,0a1.27,1.27,0,0,0-.28,0l-.23,0h-.53l-.32.05-.24,0-.35.1-.23.07-.4.15-.19.09a6.09,6.09,0,0,0-.62.32c-.22.13-.45.27-.68.43-3.43,2.41-5.89,7.38-5.51,11.11a6.27,6.27,0,0,0,.2,1,.3.3,0,0,1,0,.1,4.92,4.92,0,0,0,.34.81l.06.11a3.78,3.78,0,0,0,.46.63l.09.09a2.74,2.74,0,0,0,.58.45c1.14.69,2.74.6,4.46-.4.23-.13.46-.27.69-.43C242.36,182.42,244.84,177.44,244.45,173.72Z"/><polygon class="cls-17" points="204.15 131.89 186.39 131.89 181.37 144.85 168.23 144.85 168.23 146.78 130.09 146.78 56.28 105 105 75.57 203.92 127.45 204.15 131.89"/><polygon class="cls-18" points="82.13 89.25 84.63 111.98 79.85 109.03 77.36 87.29 82.13 89.25"/><polygon class="cls-19" points="94.87 81.91 92.73 107.36 84.63 111.98 82.13 89.25 94.87 81.91"/><polygon class="cls-20" points="132.69 60.29 203.79 101.62 163.25 125.03 132.69 107.21 132.69 60.29"/><polygon class="cls-21" points="132.68 107.2 120.19 114.41 78.58 90.23 131.56 59.64 132.69 60.29 132.69 107.21 132.68 107.2"/><polygon class="cls-19" points="132.68 107.2 132.69 107.21 163.25 125.03 150.81 132.21 132.69 121.67 120.19 114.41 132.68 107.2"/><polygon class="cls-22" points="150.81 132.21 154.87 155.33 82.64 113.36 78.58 90.23 150.81 132.21"/><polygon class="cls-21" points="203.79 101.62 201.07 128.81 154.87 155.33 150.81 132.21 203.79 101.62"/><polygon class="cls-18" points="165.51 130.67 168 153.41 163.23 150.45 160.74 127.72 165.51 130.67"/><polygon class="cls-23" points="178.25 123.33 176.11 148.78 168 153.41 165.51 130.67 178.25 123.33"/><polygon class="cls-18" points="188.29 117.71 190.79 140.45 186.01 137.49 183.52 114.76 188.29 117.71"/><polygon class="cls-23" points="201.03 110.37 198.9 135.82 190.79 140.45 188.29 117.71 201.03 110.37"/><polygon class="cls-22" points="207.79 100.24 202.57 103.26 130.94 61.64 130.94 55.58 207.79 100.24"/><polygon class="cls-24" points="130.94 55.58 130.94 61.64 79.8 91.17 74.57 88.13 130.94 55.58"/><polygon class="cls-19" points="151.42 132.79 202.57 103.26 207.79 106.3 151.42 138.85 76.9 95.21 79.8 91.17 151.42 132.79"/><polygon class="cls-18" points="151.42 132.79 151.63 138.85 74.78 94.19 74.57 88.13 151.42 132.79"/><polygon class="cls-23" points="207.79 100.24 208 106.3 151.63 138.85 151.42 132.79 207.79 100.24"/><path class="cls-25" d="M130.94,58.06l72.59,42.18-52.11,30.08L78.83,88.14l52.11-30.08Zm0-2.48L74.57,88.13l76.85,44.66,56.37-32.55L130.94,55.58Z"/><g class="cls-26"><polygon class="cls-27" points="142.59 123.2 142.5 153.95 183.28 130.26 183.37 99.5 142.59 123.2"/><polygon class="cls-28" points="100.68 98.91 100.59 129.67 142.5 153.95 142.59 123.2 100.68 98.91"/><polygon class="cls-29" points="135.78 140.88 135.76 148.31 140.82 151.24 140.84 143.81 135.78 140.88"/><polygon class="cls-29" points="128.44 136.77 128.42 144.2 133.48 147.13 133.5 139.7 128.44 136.77"/><polygon class="cls-30" points="183.37 99.5 141.46 75.22 100.68 98.91 142.59 123.2 183.37 99.5"/><polygon class="cls-7" points="166.84 109.19 124.34 84.61 116.83 89.03 159.32 113.61 166.84 109.19"/><polygon class="cls-6" points="159.32 113.61 159.32 118.9 166.84 114.53 166.84 109.19 159.32 113.61"/><polygon class="cls-27" points="142.59 88.19 142.5 118.94 183.28 95.25 183.37 64.49 142.59 88.19"/><polygon class="cls-28" points="100.68 63.9 100.59 94.66 142.5 118.94 142.59 88.19 100.68 63.9"/><polygon class="cls-29" points="135.78 105.87 135.76 113.3 140.82 116.23 140.84 108.8 135.78 105.87"/><polygon class="cls-29" points="128.44 101.76 128.42 109.19 133.48 112.12 133.5 104.69 128.44 101.76"/><polygon class="cls-30" points="183.37 64.49 141.46 40.2 100.68 63.9 142.59 88.19 183.37 64.49"/><polygon class="cls-7" points="166.84 74.18 124.34 49.6 116.83 54.02 159.32 78.59 166.84 74.18"/><polygon class="cls-6" points="159.32 78.59 159.32 83.89 166.84 79.52 166.84 74.18 159.32 78.59"/></g></g></g></svg>