<svg id="图层_1" data-name="图层 1" xmlns="http://www.w3.org/2000/svg" viewBox="0 0 260 275"><defs><style>.cls-1{fill:#fc7d27;}.cls-2{fill:#fff;}</style></defs><title>sc</title><rect class="cls-1" x="5.08" y="9.66" width="249.33" height="249.33"/><path class="cls-2" d="M226.41,170.09l-19.9-12.82,19.59-12.64c10.19-6.52,10.31-17,.31-23.48l-19.9-12.82L226.1,95.71c10.16-6.55,10.28-17.09.31-23.54L150.23,23.1c-10-6.45-26.37-6.37-36.53.18L33.39,75c-10.16,6.55-10.31,17.09-.31,23.52L53,111.36,33.39,124c-10.16,6.55-10.31,17.09-.31,23.54L53,160.33,33.39,172.94c-10.16,6.55-10.31,17.09-.31,23.54l76.18,49.07c10,6.45,26.37,6.38,36.53-.18l80.31-51.74C236.26,187.08,236.38,176.54,226.41,170.09ZM51.73,88.94c-2.55-1.75-3.5-5.53-2.29-8.64a6.83,6.83,0,0,1,2.94-5.09L120,32.37c2.75-1.74,6.2-.49,7.66,2.77s.42,7.36-2.33,9.11L65,82.48l4.39,3c2.7,1.85,3.64,6,2.08,9.2s-5,4.31-7.74,2.46Zm147.06,99-61.91,39.88c-5.08,3.26-13.26,3.31-18.25.08l-58-37.4c-5-3.24-4.92-8.49.16-11.78L71.11,172l38.18,24.6c10,6.45,26.37,6.37,36.53-.18l42.29-27.25,10.83,7C204,179.36,203.87,184.62,198.79,187.91Zm0-49-61.91,39.88c-5.08,3.29-13.26,3.32-18.25.11l-58-37.4c-5-3.21-4.92-8.49.16-11.76l10.37-6.68,38.18,24.6c10,6.43,26.37,6.37,36.53-.18l42.32-27.24,10.83,7C204,130.39,203.87,135.65,198.79,138.91Z"/></svg>